<svg width="200" height="35" viewBox="-0.000 0.000 110.018 20.470" fill="none" xmlns="http://www.w3.org/2000/svg">
  <g id="svgGroup" stroke-linecap="round" fill-rule="evenodd" font-size="24pt" stroke="#000" stroke-width="0.25mm" fill="white" style="stroke:#fff;stroke-width:0.25mm;fill:white">
    <path d="M14.21 14.54L10.938 14.439Q9.4 16.899 8.354 18.981A38.071 38.071 0 0 0 8.024 19.653A1.781 1.781 0 0 1 7.839 19.962Q7.712 20.129 7.558 20.222A0.801 0.801 0 0 1 7.13 20.342A0.594 0.594 0 0 1 6.982 20.326Q6.747 20.265 6.747 19.982Q6.747 19.762 6.862 19.504A1.925 1.925 0 0 1 6.9 19.422A22.926 22.926 0 0 1 7.262 18.671Q7.472 18.256 7.722 17.794A44.494 44.494 0 0 1 8.038 17.224Q8.694 16.055 9.561 14.619A133.949 133.949 0 0 1 9.686 14.414A39.01 39.01 0 0 0 8.836 14.422Q7.44 14.453 6.9 14.592A3.228 3.228 0 0 0 6.062 14.918A2.504 2.504 0 0 0 5.188 15.741Q5 16 4.878 16.042A0.162 0.162 0 0 1 4.855 16.049A0.282 0.282 0 0 1 4.834 16.053Q4.702 16.062 4.702 15.92Q4.702 15.793 4.804 15.692Q5.496 14.762 6.202 14.235A4.029 4.029 0 0 1 6.772 13.876Q7.73 13.373 10.014 13.41A21.334 21.334 0 0 1 10.325 13.418A81.178 81.178 0 0 0 11.192 12.084Q12.162 10.562 13.454 8.429A343.645 343.645 0 0 0 14.694 6.362Q15.618 4.632 15.727 3.474A3.209 3.209 0 0 0 15.741 3.169A2.076 2.076 0 0 0 15.554 2.251Q15.127 1.378 13.747 1.213A5.855 5.855 0 0 0 13.059 1.176Q9.788 1.176 6.978 2.888A13.384 13.384 0 0 0 4.727 4.654A15.492 15.492 0 0 0 4.191 5.201A13.108 13.108 0 0 0 2.522 7.39A11.742 11.742 0 0 0 2.096 8.166A7.75 7.75 0 0 0 1.502 9.721A6.098 6.098 0 0 0 1.304 11.245Q1.304 13.267 2.914 13.569A3.338 3.338 0 0 0 3.526 13.622A3.572 3.572 0 0 0 4.548 13.48A3.074 3.074 0 0 0 5.291 13.149Q6.056 12.675 6.644 11.934A6.211 6.211 0 0 0 7.316 10.92Q7.659 10.266 7.756 9.616A3.486 3.486 0 0 0 7.793 9.098A2.524 2.524 0 0 0 7.732 8.522A1.806 1.806 0 0 0 7.386 7.793Q7.334 7.744 7.334 7.667A0.222 0.222 0 0 1 7.346 7.591Q7.381 7.494 7.524 7.487A0.44 0.44 0 0 1 7.539 7.487A0.326 0.326 0 0 1 7.59 7.491Q7.672 7.504 7.692 7.565A2.46 2.46 0 0 1 8.193 8.896A3.13 3.13 0 0 1 8.202 9.149Q8.202 10.708 6.926 12.342A7.255 7.255 0 0 1 6.287 13.034Q5.931 13.37 5.568 13.606A3.928 3.928 0 0 1 5.304 13.762Q4.473 14.21 3.399 14.21A4.122 4.122 0 0 1 2.356 14.084A2.874 2.874 0 0 1 0.894 13.2A3.495 3.495 0 0 1 0.071 11.451A4.854 4.854 0 0 1 0 10.606A7.062 7.062 0 0 1 1.078 6.874A8.653 8.653 0 0 1 1.291 6.542Q2.581 4.626 4.549 3.246A13.988 13.988 0 0 1 12.788 0.633A15.896 15.896 0 0 1 13.212 0.64A5.765 5.765 0 0 1 14.839 0.906A5.358 5.358 0 0 1 15.128 1.01Q16.022 1.354 16.573 2.007Q17.122 2.658 17.122 3.629A3.816 3.816 0 0 1 16.954 4.714Q16.724 5.493 16.178 6.362L11.55 13.467Q12.009 13.491 12.711 13.544A88.262 88.262 0 0 1 12.88 13.558A41.488 41.488 0 0 1 13.536 13.614Q13.828 13.641 14.148 13.676A77.751 77.751 0 0 1 14.822 13.748A52.188 52.188 0 0 0 15.276 13.796Q15.927 13.861 16.407 13.89Q16.895 13.919 17.206 13.926A7.82 7.82 0 0 0 17.378 13.927L18.388 13.927A11.491 11.491 0 0 0 18.634 13.926Q18.872 13.919 19.042 13.904A3.281 3.281 0 0 0 19.065 13.902L20.035 12.293Q21.314 10.17 22.706 8.267Q24.099 6.362 25.607 4.678Q28.441 1.546 30.593 0.411A6.716 6.716 0 0 1 31.459 0.026A0.474 0.474 0 0 1 31.542 0.007Q31.587 0 31.639 0Q31.771 0 31.789 0.154A0.446 0.446 0 0 1 31.791 0.204A0.138 0.138 0 0 1 31.747 0.306A0.22 0.22 0 0 1 31.714 0.333Q30.999 0.725 30.002 1.65A19.888 19.888 0 0 0 29.786 1.854Q28.649 2.938 27.14 4.678A54.458 54.458 0 0 0 23.234 9.73A46.414 46.414 0 0 0 21.747 12.062L20.751 13.748A6.138 6.138 0 0 0 21.36 13.64Q22.07 13.473 22.438 13.161Q22.54 13.084 22.618 13.238A0.508 0.508 0 0 1 22.634 13.286Q22.662 13.374 22.639 13.434A0.141 0.141 0 0 1 22.591 13.494A3.534 3.534 0 0 1 21.872 13.912Q21.507 14.073 21.064 14.193A7.991 7.991 0 0 1 20.419 14.336Q18.799 17.347 18.646 18.742A2.512 2.512 0 0 0 18.63 19.013A1.482 1.482 0 0 0 18.662 19.339Q18.786 19.882 19.371 19.882A1.876 1.876 0 0 0 19.804 19.828Q20.152 19.745 20.56 19.538A4.834 4.834 0 0 0 21.102 19.218Q21.371 19.032 21.579 18.826A2.841 2.841 0 0 0 21.646 18.758A0.45 0.45 0 0 1 21.667 18.738Q21.702 18.706 21.722 18.706Q21.799 18.706 21.799 18.861Q21.772 19.039 21.671 19.141Q21.432 19.379 21.072 19.618A6.115 6.115 0 0 1 20.854 19.754Q20.342 20.061 19.793 20.266A3.987 3.987 0 0 1 19.416 20.387Q19.227 20.435 19.058 20.456A1.878 1.878 0 0 1 18.834 20.47Q18.121 20.47 17.738 19.912A1.588 1.588 0 0 1 17.736 19.907Q17.352 19.346 17.352 18.578A4.546 4.546 0 0 1 17.478 17.576Q17.701 16.598 18.32 15.307A21.172 21.172 0 0 1 18.706 14.54Q17.761 14.618 16.816 14.618A21.752 21.752 0 0 1 16.424 14.613Q15.676 14.6 14.21 14.54ZM66.956 14.515L65.422 16.126L65.116 16.432Q64.866 16.681 64.714 16.688A0.189 0.189 0 0 1 64.707 16.688A0.127 0.127 0 0 1 64.646 16.673Q64.593 16.646 64.582 16.559A0.398 0.398 0 0 1 64.579 16.508A0.191 0.191 0 0 1 64.582 16.474Q64.591 16.431 64.618 16.369Q64.655 16.28 64.782 16.151A35.028 35.028 0 0 0 65.172 15.755A40.44 40.44 0 0 0 65.576 15.333A11.834 11.834 0 0 0 65.991 14.867A15.38 15.38 0 0 0 66.42 14.336A36.681 36.681 0 0 0 66.602 14.093Q66.812 13.814 67.1 13.424A161.295 161.295 0 0 0 67.378 13.047Q67.988 12.211 68.88 10.95A278.444 278.444 0 0 0 68.922 10.886A0.901 0.901 0 0 1 69.578 10.512A1.244 1.244 0 0 1 69.715 10.504A0.778 0.778 0 0 1 69.914 10.527Q70.169 10.593 70.216 10.859A0.742 0.742 0 0 1 70.227 10.989A0.258 0.258 0 0 1 70.207 11.066Q70.084 11.388 69.232 12.842A119.002 119.002 0 0 1 68.922 13.366Q68.259 14.54 67.862 15.282Q67.565 15.841 67.432 16.182A2.367 2.367 0 0 0 67.365 16.381Q67.848 15.854 68.491 15.214A52.809 52.809 0 0 1 68.707 15.001A67.368 67.368 0 0 1 69.49 14.242Q69.906 13.849 70.373 13.413A113.161 113.161 0 0 1 70.507 13.289Q73.634 10.391 74.638 10.376A0.694 0.694 0 0 1 74.648 10.376A0.922 0.922 0 0 1 75.053 10.472A1.202 1.202 0 0 1 75.198 10.554Q75.466 10.734 75.466 11.014A0.198 0.198 0 0 1 75.45 11.072Q75.34 11.36 74.469 12.88A89.681 89.681 0 0 0 74.136 13.491Q73.479 14.706 73.396 14.976Q76.233 12.599 76.233 12.573A22.43 22.43 0 0 1 77.219 11.847Q78.666 10.845 79.473 10.725A1.419 1.419 0 0 1 79.682 10.708A0.96 0.96 0 0 1 80.214 10.87A1.187 1.187 0 0 1 80.258 10.899A0.824 0.824 0 0 1 80.393 11.019Q80.472 11.106 80.502 11.206A0.455 0.455 0 0 1 80.526 11.346Q80.526 11.398 78.891 13.494A17.054 17.054 0 0 0 78.099 14.567Q77.374 15.64 77.116 16.474A3.361 3.361 0 0 0 76.999 16.969Q76.906 17.811 77.776 17.882A2.074 2.074 0 0 0 77.944 17.888A1.432 1.432 0 0 0 78.344 17.824Q78.907 17.66 79.733 17.072A11.056 11.056 0 0 0 80.75 16.246Q81.246 15.796 81.761 15.239A20.765 20.765 0 0 0 82.136 14.822Q82.288 14.642 82.468 14.478A1.08 1.08 0 0 1 82.554 14.404Q82.646 14.335 82.72 14.318A0.227 0.227 0 0 1 82.774 14.312Q82.928 14.312 82.928 14.439Q82.928 14.618 82.698 14.848Q82.033 15.64 81.127 16.484A14.334 14.334 0 0 1 80.109 17.347A11.396 11.396 0 0 1 79.324 17.902A4.882 4.882 0 0 1 78.786 18.204Q78.214 18.476 77.739 18.476A2.719 2.719 0 0 1 77.073 18.402Q76.002 18.131 76.002 16.867A2.558 2.558 0 0 1 76.053 16.382Q76.098 16.147 76.184 15.886A5.518 5.518 0 0 1 76.309 15.551Q76.618 14.798 76.922 14.182A17.144 17.144 0 0 1 77.848 12.601A13.895 13.895 0 0 1 78.532 11.653A9.716 9.716 0 0 0 77.646 12.16A12.902 12.902 0 0 0 76.833 12.727A19.366 19.366 0 0 0 75.821 13.547A24.779 24.779 0 0 0 75.006 14.286A15.7 15.7 0 0 0 73.473 16.004Q72.482 17.308 71.99 18.63A0.414 0.414 0 0 1 71.73 18.814Q71.652 18.834 71.556 18.834Q70.961 18.834 70.944 18.186A1.482 1.482 0 0 1 70.942 18.145A10.253 10.253 0 0 1 71.284 16.873Q71.494 16.244 71.798 15.558A19.618 19.618 0 0 1 72.092 14.924Q72.501 14.055 72.922 13.212Q73.345 12.369 73.754 11.5A24.502 24.502 0 0 0 72.114 12.713A27.288 27.288 0 0 0 71.862 12.919A18.216 18.216 0 0 0 70.302 14.37A20.433 20.433 0 0 0 70.022 14.669Q69.302 15.442 68.424 16.516A65.16 65.16 0 0 0 67.594 17.558Q66.61 18.793 66.45 18.809A0.041 0.041 0 0 1 66.444 18.809A0.662 0.662 0 0 1 65.933 18.571A0.992 0.992 0 0 1 65.856 18.476Q65.651 18.178 65.629 17.96A0.493 0.493 0 0 1 65.627 17.914A0.876 0.876 0 0 1 65.651 17.738Q65.746 17.302 66.214 16.202Q66.393 15.768 66.586 15.346Q66.778 14.924 66.956 14.515ZM35.881 14.286L37.515 11.629A20.276 20.276 0 0 0 35.568 13.268A26.419 26.419 0 0 0 34.066 14.822A33.551 33.551 0 0 0 33.641 15.302Q33.426 15.551 33.19 15.834A58.62 58.62 0 0 0 33.031 16.022Q32.494 16.667 31.858 17.49A73.858 73.858 0 0 0 31.766 17.608A26.922 26.922 0 0 1 31.546 17.888Q30.971 18.62 30.754 18.77A0.176 0.176 0 0 1 30.666 18.809A0.676 0.676 0 0 1 30.147 18.573A0.969 0.969 0 0 1 30.079 18.491A1.667 1.667 0 0 1 29.96 18.302Q29.906 18.2 29.88 18.106A0.673 0.673 0 0 1 29.85 17.914A1.124 1.124 0 0 1 29.855 17.8Q29.88 17.581 29.976 17.161A6.725 6.725 0 0 1 30.098 16.706Q30.182 16.432 30.282 16.202Q30.462 15.768 30.654 15.346Q30.846 14.924 31.024 14.515L29.491 16.126L29.184 16.432Q28.936 16.681 28.782 16.688A0.189 0.189 0 0 1 28.775 16.688A0.127 0.127 0 0 1 28.714 16.673Q28.662 16.646 28.651 16.559A0.398 0.398 0 0 1 28.649 16.508A0.191 0.191 0 0 1 28.651 16.474Q28.66 16.431 28.687 16.369Q28.725 16.28 28.852 16.151A35.028 35.028 0 0 0 29.242 15.755A40.44 40.44 0 0 0 29.644 15.333A11.834 11.834 0 0 0 30.061 14.867A15.38 15.38 0 0 0 30.487 14.336A46.712 46.712 0 0 0 30.618 14.178Q30.832 13.912 31.175 13.482A25.309 25.309 0 0 1 31.178 13.481Q31.639 12.906 32.187 12.241Q32.738 11.578 33.222 11.014A0.905 0.905 0 0 1 33.32 10.898Q33.408 10.812 33.504 10.772A2.196 2.196 0 0 1 33.566 10.747Q33.651 10.714 33.693 10.709A0.119 0.119 0 0 1 33.708 10.708A1.301 1.301 0 0 1 33.96 10.73Q34.358 10.809 34.394 11.17A0.75 0.75 0 0 1 34.398 11.245A0.652 0.652 0 0 1 34.353 11.48A0.801 0.801 0 0 1 34.321 11.55A40.387 40.387 0 0 0 33.286 13.041Q32.38 14.416 31.921 15.424A6.572 6.572 0 0 0 31.56 16.381Q34.004 13.938 35.658 12.492A34.444 34.444 0 0 1 36.328 11.922Q37.906 10.611 38.691 10.449A1.019 1.019 0 0 1 38.895 10.428Q39.3 10.428 39.516 10.551A0.621 0.621 0 0 1 39.522 10.554Q39.709 10.665 39.734 10.946A1.032 1.032 0 0 1 39.739 11.041A1.054 1.054 0 0 1 39.738 11.114Q39.731 11.192 39.713 11.245Q39.648 11.398 38.935 12.326A83.378 83.378 0 0 1 38.666 12.675Q38.078 13.391 37.632 13.979Q37.324 14.382 37.094 14.714A11.549 11.549 0 0 0 36.902 15.001Q36.442 15.716 36.213 16.342A4.86 4.86 0 0 0 36.082 16.742Q35.982 17.114 35.982 17.402A1.582 1.582 0 0 0 35.99 17.548Q35.998 17.626 36.011 17.714A3.41 3.41 0 0 0 36.033 17.838A0.402 0.402 0 0 0 36.073 17.951Q36.149 18.093 36.339 18.093A1.076 1.076 0 0 0 36.688 18.026Q37.198 17.849 38.002 17.212A13.001 13.001 0 0 0 38.18 17.072Q38.768 16.56 39.279 16.038A35.712 35.712 0 0 0 40.134 15.128A32.495 32.495 0 0 0 40.251 15.001A1.561 1.561 0 0 0 40.307 14.939Q40.404 14.832 40.566 14.626A15.242 15.242 0 0 0 40.581 14.606A5.402 5.402 0 0 1 40.655 14.513Q40.821 14.312 40.864 14.312A0.082 0.082 0 0 1 40.94 14.361Q40.96 14.401 40.965 14.472A0.687 0.687 0 0 1 40.966 14.515A0.298 0.298 0 0 1 40.958 14.576Q40.938 14.68 40.851 14.861A1.958 1.958 0 0 1 40.769 15.014Q40.727 15.088 40.682 15.147A0.862 0.862 0 0 1 40.608 15.231A12.852 12.852 0 0 1 40.45 15.413Q40.271 15.618 40.02 15.89A50.941 50.941 0 0 1 39.778 16.151A19.272 19.272 0 0 1 39.04 16.895A23.306 23.306 0 0 1 38.55 17.352A13.813 13.813 0 0 1 37.882 17.92A10.736 10.736 0 0 1 37.234 18.4A3.518 3.518 0 0 1 36.87 18.62Q36.451 18.834 36.11 18.834Q35.685 18.834 35.414 18.682A0.828 0.828 0 0 1 35.138 18.439A1.49 1.49 0 0 1 34.894 17.858A2.076 2.076 0 0 1 34.858 17.454A4.969 4.969 0 0 1 35.106 15.946Q35.296 15.344 35.638 14.712A9.462 9.462 0 0 1 35.881 14.286ZM54.408 15.692L57.934 11.55Q58.598 10.784 59.391 10.784A1.102 1.102 0 0 1 59.606 10.802Q59.979 10.878 59.979 11.245A0.421 0.421 0 0 1 59.907 11.48A0.618 0.618 0 0 1 59.826 11.578Q59.361 12.016 58.701 12.802A29.812 29.812 0 0 0 58.638 12.88A23.699 23.699 0 0 0 57.438 14.453A26.33 26.33 0 0 0 57.27 14.694Q56.607 15.666 56.159 16.547A6.43 6.43 0 0 0 55.941 17.016Q55.75 17.484 55.718 17.83A1.45 1.45 0 0 0 55.712 17.966Q55.712 18.426 56.019 18.426Q56.198 18.426 56.58 18.286A2.345 2.345 0 0 0 56.816 18.182Q57.066 18.056 57.394 17.839A10.228 10.228 0 0 0 57.602 17.698A6.182 6.182 0 0 0 58.027 17.369Q58.488 16.982 59.054 16.39A20.974 20.974 0 0 0 59.136 16.304A3.108 3.108 0 0 0 59.21 16.226Q59.398 16.024 59.87 15.481A122.933 122.933 0 0 0 59.954 15.384Q60.462 14.798 61.24 13.821A115.589 115.589 0 0 0 61.742 13.187A32.704 32.704 0 0 1 62.438 12.348Q63.766 10.807 64.286 10.713A0.361 0.361 0 0 1 64.348 10.708Q65.126 10.708 65.252 11.294A1.042 1.042 0 0 1 65.269 11.398Q65.314 11.604 64.412 12.658A26.382 26.382 0 0 1 64.196 12.906A111.282 111.282 0 0 0 63.525 13.724Q62.702 14.741 62.294 15.307A11.345 11.345 0 0 0 62.202 15.435A10.608 10.608 0 0 0 61.767 16.124Q61.379 16.796 61.259 17.295A1.787 1.787 0 0 0 61.206 17.709A1.22 1.22 0 0 0 61.22 17.908Q61.278 18.259 61.567 18.273A0.499 0.499 0 0 0 61.589 18.273Q61.931 18.273 62.446 17.978A4.532 4.532 0 0 0 62.573 17.902Q63.172 17.531 63.839 16.958Q64.502 16.381 65.129 15.755Q65.734 15.149 66.184 14.627A14.902 14.902 0 0 0 66.214 14.592A0.961 0.961 0 0 1 66.218 14.59Q66.308 14.485 66.398 14.442A0.287 0.287 0 0 1 66.521 14.414Q66.642 14.414 66.667 14.509A0.226 0.226 0 0 1 66.674 14.567Q66.674 14.618 66.649 14.719Q66.626 14.816 66.513 14.933A1.147 1.147 0 0 1 66.496 14.95A33.048 33.048 0 0 1 66.278 15.193Q65.926 15.579 65.448 16.087A22.749 22.749 0 0 1 64.251 17.262A25.162 25.162 0 0 1 64.067 17.429A12.484 12.484 0 0 1 63.34 18.035A9.249 9.249 0 0 1 62.638 18.528Q61.947 18.962 61.462 18.962A1.818 1.818 0 0 1 60.881 18.872A1.598 1.598 0 0 1 60.439 18.642A1.016 1.016 0 0 1 60.012 17.906A1.339 1.339 0 0 1 60.004 17.761A3.772 3.772 0 0 1 60.15 16.736A4.274 4.274 0 0 1 60.182 16.624A25.512 25.512 0 0 0 60.307 16.216Q60.354 16.055 60.393 15.912A12.638 12.638 0 0 0 60.465 15.64A27.362 27.362 0 0 1 59.742 16.453Q58.98 17.276 58.356 17.786Q57.449 18.528 56.835 18.798A5 5 0 0 1 56.512 18.926Q56.194 19.039 55.966 19.06A1.102 1.102 0 0 1 55.864 19.065A1.281 1.281 0 0 1 55.354 18.971Q54.802 18.733 54.726 17.891A3.158 3.158 0 0 1 54.714 17.608Q54.714 17.2 54.896 16.676A5.41 5.41 0 0 1 55.061 16.266A7.425 7.425 0 0 1 55.462 15.49Q55.682 15.119 55.962 14.729A12.38 12.38 0 0 1 56.042 14.618L55.582 15.052A12.487 12.487 0 0 0 55.22 15.41Q55.022 15.614 54.804 15.852A25.027 25.027 0 0 0 54.535 16.151A0.345 0.345 0 0 1 54.291 16.253A0.452 0.452 0 0 1 54.28 16.253A0.115 0.115 0 0 1 54.235 16.246Q54.186 16.224 54.179 16.148A0.276 0.276 0 0 1 54.178 16.126A0.241 0.241 0 0 1 54.192 16.053Q54.23 15.939 54.364 15.75A3.433 3.433 0 0 1 54.408 15.692ZM48.708 10.453L50.19 10.453A44.299 44.299 0 0 0 50.659 9.846A51.281 51.281 0 0 0 51.138 9.2Q51.808 8.354 52.213 8.187A0.7 0.7 0 0 1 52.235 8.178L52.313 8.178Q52.491 8.178 52.822 8.358A1.698 1.698 0 0 1 52.982 8.459Q53.14 8.57 53.199 8.686A0.287 0.287 0 0 1 53.232 8.818A0.46 0.46 0 0 1 53.181 8.993Q52.982 9.429 52.006 10.529A3.034 3.034 0 0 0 52.134 10.539Q52.345 10.554 52.67 10.554L53.744 10.554L54.626 10.554A57.091 57.091 0 0 0 55.516 10.547A64.813 64.813 0 0 0 55.827 10.542Q56.256 10.533 56.609 10.524A108.168 108.168 0 0 0 56.913 10.516A252.28 252.28 0 0 1 57.021 10.514Q57.356 10.505 57.418 10.504A0.742 0.742 0 0 1 57.422 10.504A0.208 0.208 0 0 1 57.454 10.515Q57.468 10.522 57.479 10.533A0.062 0.062 0 0 1 57.5 10.58A0.145 0.145 0 0 1 57.398 10.672Q56.944 10.88 54.518 11.189A83.088 83.088 0 0 1 54.484 11.193Q53.173 11.37 52.334 11.486A203.824 203.824 0 0 0 51.866 11.55A96.274 96.274 0 0 0 51.651 11.581Q50.988 11.676 50.891 11.702A0.152 0.152 0 0 0 50.881 11.705Q50.524 12.011 50.012 12.751A18.286 18.286 0 0 0 49.438 13.642A23.099 23.099 0 0 0 48.991 14.414A19.129 19.129 0 0 0 48.467 15.42A15.102 15.102 0 0 0 48.134 16.164A7.472 7.472 0 0 0 47.982 16.555Q47.789 17.11 47.789 17.454A0.889 0.889 0 0 0 47.876 17.849A0.898 0.898 0 0 0 48.095 18.132A0.906 0.906 0 0 0 48.38 18.296Q48.661 18.4 49.092 18.4A2.602 2.602 0 0 0 49.479 18.369Q49.675 18.339 49.898 18.281A5.661 5.661 0 0 0 50.19 18.196A10.293 10.293 0 0 0 51.369 17.739A9.531 9.531 0 0 0 51.406 17.724Q51.959 17.465 52.216 17.313A2.874 2.874 0 0 0 52.235 17.301Q52.792 16.959 53.446 16.429A18.048 18.048 0 0 0 53.706 16.216A16 16 0 0 0 54.806 15.193A18.924 18.924 0 0 0 55.302 14.669A4.452 4.452 0 0 1 55.43 14.547Q55.619 14.371 55.726 14.327A0.166 0.166 0 0 1 55.788 14.312Q55.854 14.312 55.862 14.389A0.224 0.224 0 0 1 55.864 14.414Q55.864 14.6 55.544 15.001A4.98 4.98 0 0 1 55.481 15.078Q54.867 15.819 54.114 16.498A11.284 11.284 0 0 1 52.569 17.655A12.486 12.486 0 0 1 52.441 17.736A9.961 9.961 0 0 1 51.446 18.272A7.292 7.292 0 0 1 50.434 18.656A7.427 7.427 0 0 1 49.539 18.862A5.482 5.482 0 0 1 48.659 18.938A2.73 2.73 0 0 1 48.136 18.891Q47.836 18.831 47.598 18.698A1.48 1.48 0 0 1 47.368 18.54Q46.894 18.145 46.894 17.122A2.554 2.554 0 0 1 46.936 16.682Q47.011 16.254 47.222 15.702A8.573 8.573 0 0 1 47.252 15.629A19.206 19.206 0 0 1 47.654 14.684A25.47 25.47 0 0 1 48.147 13.672Q48.684 12.625 49.22 11.602Q48.888 11.679 48.632 11.679Q47.913 11.679 47.869 11.161A0.822 0.822 0 0 1 47.866 11.091Q47.866 10.81 48.082 10.656A1.401 1.401 0 0 1 48.226 10.568Q48.361 10.494 48.48 10.478L48.542 10.478A0.42 0.42 0 0 0 48.587 10.475Q48.636 10.47 48.7 10.454A1.391 1.391 0 0 0 48.708 10.453ZM87.17 16.049L85.586 17.582Q85.116 18.053 84.706 18.346A3.692 3.692 0 0 1 84.296 18.604Q83.789 18.874 83.451 18.907A0.934 0.934 0 0 1 83.362 18.911A1.873 1.873 0 0 1 82.614 18.75A2.646 2.646 0 0 1 82.136 18.476A2.082 2.082 0 0 1 81.791 18.176Q81.576 17.935 81.49 17.66A1.241 1.241 0 0 1 81.446 17.454A2.651 2.651 0 0 1 81.422 17.112Q81.422 15.255 83.925 12.778Q86.235 10.467 88.155 10.128A3.728 3.728 0 0 1 88.807 10.069Q89.246 10.069 89.544 10.228A1.031 1.031 0 0 1 89.726 10.35A0.945 0.945 0 0 1 89.89 10.578Q89.944 10.678 89.982 10.8A1.633 1.633 0 0 1 89.994 10.836A3.213 3.213 0 0 0 90.022 10.932Q90.08 11.106 90.118 11.135A0.026 0.026 0 0 0 90.134 11.142A0.461 0.461 0 0 0 90.224 11.134A0.349 0.349 0 0 0 90.313 11.104Q90.39 11.066 90.493 11.066A0.731 0.731 0 0 1 91.014 11.282A0.96 0.96 0 0 1 91.029 11.296Q91.226 11.493 91.273 11.653A0.371 0.371 0 0 1 91.285 11.705A0.005 0.005 0 0 1 91.285 11.707Q91.285 11.782 90.046 13.639A294.144 294.144 0 0 1 89.649 14.234Q88.007 16.638 88.138 17.512A0.772 0.772 0 0 0 88.14 17.531A1.288 1.288 0 0 0 88.212 17.76Q88.264 17.881 88.335 17.96A0.474 0.474 0 0 0 88.704 18.118A1.554 1.554 0 0 0 89.419 17.894Q90.831 17.124 93.559 13.722A0.418 0.418 0 0 1 93.598 13.679Q93.648 13.629 93.698 13.622A0.115 0.115 0 0 1 93.712 13.622A0.127 0.127 0 0 1 93.772 13.636Q93.826 13.662 93.838 13.75A0.398 0.398 0 0 1 93.84 13.8A0.482 0.482 0 0 1 93.816 13.946Q93.772 14.076 93.662 14.238A2.156 2.156 0 0 1 93.61 14.312A32.82 32.82 0 0 1 92.353 15.906Q90.498 18.105 89.242 18.561A1.807 1.807 0 0 1 88.627 18.681A1.228 1.228 0 0 1 88.193 18.604A1.898 1.898 0 0 1 87.575 18.231Q87.067 17.759 87.067 16.918Q87.067 16.484 87.17 16.049ZM94.632 12.802L97.852 9.788A40.86 40.86 0 0 1 98.168 9.487Q98.511 9.165 98.766 8.944A10.418 10.418 0 0 1 98.914 8.818A3.618 3.618 0 0 1 99.075 8.687Q99.316 8.508 99.452 8.487A0.231 0.231 0 0 1 99.488 8.484A1.602 1.602 0 0 1 99.782 8.508Q100.306 8.609 100.306 9.098Q100.306 9.404 99.973 9.813A14.601 14.601 0 0 0 99.854 9.958Q99.741 10.098 99.664 10.202A3.162 3.162 0 0 0 99.602 10.287Q99.488 10.453 99.462 10.478A3.715 3.715 0 0 0 99.224 10.987Q99.007 11.542 98.808 12.402A22.686 22.686 0 0 0 98.62 13.314A178.588 178.588 0 0 1 98.484 14.034Q98.299 14.998 98.154 15.695A57.759 57.759 0 0 1 98.133 15.793A44.791 44.791 0 0 1 98.035 16.246Q97.898 16.873 97.801 17.199A3.992 3.992 0 0 0 99.331 16.846A5.09 5.09 0 0 0 99.922 16.534A6.259 6.259 0 0 0 100.713 15.956Q101.094 15.63 101.494 15.207A14.968 14.968 0 0 0 102.171 14.439L102.324 14.286A0.461 0.461 0 0 1 102.387 14.234Q102.425 14.207 102.462 14.194A0.214 0.214 0 0 1 102.529 14.182A0.27 0.27 0 0 1 102.586 14.189Q102.667 14.207 102.681 14.282A0.179 0.179 0 0 1 102.682 14.312A0.459 0.459 0 0 1 102.646 14.486A0.601 0.601 0 0 1 102.606 14.567A2.978 2.978 0 0 1 102.518 14.702A2.362 2.362 0 0 1 102.452 14.798A17.976 17.976 0 0 1 101.826 15.508Q101.38 15.987 100.97 16.342A6.122 6.122 0 0 1 99.915 17.087A5.45 5.45 0 0 1 99.514 17.288A7.646 7.646 0 0 1 98.734 17.587Q98.255 17.74 97.699 17.864L96.881 18.4A2.039 2.039 0 0 1 96.416 18.638A2.606 2.606 0 0 1 96.088 18.733A4.362 4.362 0 0 1 95.308 18.831A4.972 4.972 0 0 1 95.118 18.834A2.882 2.882 0 0 1 94.428 18.758A1.839 1.839 0 0 1 93.341 18.042Q92.925 17.466 92.621 16.568A9.956 9.956 0 0 1 92.409 15.844A5.282 5.282 0 0 1 92.246 16.001Q91.991 16.234 91.849 16.288A0.226 0.226 0 0 1 91.77 16.304A0.106 0.106 0 0 1 91.67 16.242Q91.644 16.198 91.642 16.118A0.611 0.611 0 0 1 91.642 16.1A0.362 0.362 0 0 1 91.711 15.888A0.518 0.518 0 0 1 91.77 15.819L92.422 15.027A10.294 10.294 0 0 1 92.804 14.591Q93.254 14.102 93.944 13.447A51.733 51.733 0 0 1 94.632 12.802ZM24.26 18.986A1.399 1.399 0 0 0 24.738 19.065Q25.76 19.065 26.629 18.567Q27.498 18.068 28.239 17.352Q28.979 16.638 29.593 16.022A14.008 14.008 0 0 0 29.896 15.713Q30.198 15.391 30.399 15.128A4.781 4.781 0 0 0 30.496 14.998Q30.692 14.722 30.692 14.618A0.354 0.354 0 0 0 30.689 14.57Q30.674 14.464 30.59 14.464A0.044 0.044 0 0 0 30.589 14.464Q30.547 14.466 30.414 14.548A2.944 2.944 0 0 0 30.348 14.592Q30.156 14.719 29.899 15.052Q29.644 15.371 29.294 15.731A14.853 14.853 0 0 1 28.84 16.178Q28.187 16.79 27.473 17.327A12.19 12.19 0 0 1 26.816 17.788A9.12 9.12 0 0 1 26.106 18.209A5.261 5.261 0 0 1 25.978 18.273Q25.609 18.456 25.324 18.52A1.293 1.293 0 0 1 25.044 18.554A0.89 0.89 0 0 1 24.948 18.548Q24.526 18.502 24.432 18.034A1.535 1.535 0 0 1 24.407 17.736Q24.407 16.688 26.322 14.21L28.265 11.705A0.313 0.313 0 0 0 28.26 11.653Q28.238 11.508 28.073 11.378A1.14 1.14 0 0 0 27.933 11.284Q27.718 11.158 27.545 11.114A0.712 0.712 0 0 0 27.37 11.091Q26.638 11.111 25.579 12.592A14.938 14.938 0 0 0 25.019 13.442Q24.661 14.004 24.291 14.719A11.78 11.78 0 0 0 24.156 14.988A10.41 10.41 0 0 0 23.678 16.139Q23.536 16.545 23.478 16.895A2.905 2.905 0 0 0 23.434 17.378Q23.434 18.324 23.806 18.694A1.226 1.226 0 0 0 24.26 18.986ZM41.4 18.834L40.991 18.834Q40.352 18.834 39.993 18.234Q39.638 17.633 39.638 17.072Q39.638 15.538 41.86 12.778Q43.954 10.186 45.294 10.006A1.471 1.471 0 0 1 45.489 9.992A1.768 1.768 0 0 1 46.012 10.062Q46.792 10.304 46.792 11.372Q46.792 11.578 46.754 11.807Q46.715 12.038 46.664 12.293A0.128 0.128 0 0 0 46.714 12.334Q46.762 12.358 46.844 12.366A0.864 0.864 0 0 0 46.919 12.369A2.459 2.459 0 0 0 47.473 12.302Q47.965 12.187 48.556 11.882Q48.529 12.318 46.536 13.135A0.712 0.712 0 0 1 46.571 13.33Q46.606 14.112 45.281 15.818A21.649 21.649 0 0 1 44.85 16.356A14.436 14.436 0 0 1 43.993 17.321Q43.078 18.261 42.299 18.618A2.167 2.167 0 0 1 41.4 18.834ZM102.862 18.834L102.452 18.834Q101.813 18.834 101.455 18.234Q101.098 17.633 101.098 17.072Q101.098 15.538 103.32 12.778Q105.414 10.186 106.754 10.006A1.471 1.471 0 0 1 106.95 9.992A1.768 1.768 0 0 1 107.474 10.062Q108.253 10.304 108.253 11.372Q108.253 11.578 108.216 11.807Q108.178 12.038 108.126 12.293A0.128 0.128 0 0 0 108.176 12.334Q108.222 12.358 108.306 12.366A0.864 0.864 0 0 0 108.381 12.369A2.459 2.459 0 0 0 108.934 12.302Q109.426 12.187 110.018 11.882Q109.991 12.318 107.998 13.135A0.712 0.712 0 0 1 108.033 13.33Q108.066 14.112 106.742 15.818A21.649 21.649 0 0 1 106.312 16.356A14.436 14.436 0 0 1 105.455 17.321Q104.539 18.261 103.76 18.618A2.167 2.167 0 0 1 102.862 18.834ZM87.17 15.104L89.88 11.372A0.671 0.671 0 0 0 89.398 11.03A1.001 1.001 0 0 0 89.214 11.014Q87.655 11.014 84.998 13.519Q82.238 16.074 82.518 17.736Q82.644 18.34 83.118 18.349A0.756 0.756 0 0 0 83.133 18.349A2.016 2.016 0 0 0 84.022 18.107Q85.188 17.525 86.814 15.547A26.952 26.952 0 0 0 87.17 15.104ZM98.006 11.245L98.108 10.376A11.319 11.319 0 0 0 97.709 10.684Q97.272 11.041 96.706 11.554A37.578 37.578 0 0 0 96.626 11.629Q95.731 12.446 94.862 13.339A22.286 22.286 0 0 0 94.478 13.746Q93.958 14.31 93.756 14.627A1.874 1.874 0 0 0 93.738 14.658A4.556 4.556 0 0 0 93.626 14.85Q93.476 15.127 93.458 15.282A0.43 0.43 0 0 0 93.458 15.282A2.946 2.946 0 0 0 93.442 15.527Q93.428 16.38 93.956 16.918Q94.556 17.531 95.424 17.531A2.024 2.024 0 0 0 95.852 17.488Q96.162 17.421 96.396 17.25A0.609 0.609 0 0 0 96.552 17.12Q96.751 16.9 96.945 16.398A6.048 6.048 0 0 0 96.946 16.394Q97.213 15.692 97.469 14.642Q97.673 13.748 97.789 12.893A329.251 329.251 0 0 0 97.953 11.645A292.507 292.507 0 0 0 98.006 11.245ZM41.452 18.068A1.674 1.674 0 0 0 42.151 17.892Q43.038 17.481 44.212 16.108A16.446 16.446 0 0 0 44.262 16.049A18.43 18.43 0 0 0 44.898 15.254Q45.782 14.082 45.905 13.413A1.125 1.125 0 0 0 45.922 13.212Q45.613 13.038 45.186 12.452A9.189 9.189 0 0 1 44.902 12.038Q44.139 12.038 42.786 13.652A17.751 17.751 0 0 0 42.398 14.132A14.782 14.782 0 0 0 41.75 15.012Q40.798 16.427 40.839 17.276Q40.864 18.068 41.452 18.068ZM102.912 18.068A1.674 1.674 0 0 0 103.613 17.892Q104.498 17.481 105.673 16.108A16.446 16.446 0 0 0 105.724 16.049A18.43 18.43 0 0 0 106.36 15.254Q107.242 14.082 107.366 13.413A1.125 1.125 0 0 0 107.384 13.212Q107.074 13.038 106.646 12.452A9.189 9.189 0 0 1 106.361 12.038Q105.6 12.038 104.246 13.652A17.751 17.751 0 0 0 103.859 14.132A14.782 14.782 0 0 0 103.212 15.012Q102.259 16.427 102.298 17.276Q102.324 18.068 102.912 18.068ZM29.466 9.992Q29.031 9.992 28.713 9.712A1.08 1.08 0 0 1 28.525 9.502A0.759 0.759 0 0 1 28.391 9.072A0.735 0.735 0 0 1 28.462 8.736Q28.655 8.358 29.362 8.358A1.14 1.14 0 0 1 29.818 8.454A1.578 1.578 0 0 1 30.079 8.6A0.994 0.994 0 0 1 30.267 8.762A0.642 0.642 0 0 1 30.438 9.2A0.568 0.568 0 0 1 30.318 9.546Q30.258 9.626 30.168 9.699A1.259 1.259 0 0 1 30.104 9.75A1.522 1.522 0 0 1 29.874 9.89Q29.738 9.958 29.602 9.98A0.807 0.807 0 0 1 29.466 9.992Z" vector-effect="none"/>
  </g>
</svg>

